<svg width="140" height="140" viewBox="0 0 140 140" fill="none" xmlns="http://www.w3.org/2000/svg">
<g filter="url(#filter0_d_3709_223)">
<rect x="24" y="12" width="92" height="92" rx="12" fill="white" shape-rendering="crispEdges"/>
<path d="M37.864 74L49.816 38.96H60.952L73.24 74H66.232L55.816 43.616L58.264 44.672H52.264L54.76 43.616L44.68 74H37.864ZM46.216 64.688L48.376 58.928H62.584L64.696 64.688H46.216ZM93.709 74V66.272H92.605V57.68C92.605 56.176 92.237 55.056 91.501 54.32C90.765 53.584 89.629 53.216 88.093 53.216C87.293 53.216 86.333 53.232 85.213 53.264C84.093 53.296 82.957 53.344 81.805 53.408C80.685 53.44 79.677 53.488 78.781 53.552V47.888C79.517 47.824 80.349 47.76 81.277 47.696C82.205 47.632 83.149 47.6 84.109 47.6C85.101 47.568 86.029 47.552 86.893 47.552C89.581 47.552 91.805 47.904 93.565 48.608C95.357 49.312 96.701 50.416 97.597 51.92C98.525 53.424 98.989 55.392 98.989 57.824V74H93.709ZM85.309 74.672C83.421 74.672 81.757 74.336 80.317 73.664C78.909 72.992 77.805 72.032 77.005 70.784C76.237 69.536 75.853 68.032 75.853 66.272C75.853 64.352 76.317 62.784 77.245 61.568C78.205 60.352 79.533 59.44 81.229 58.832C82.957 58.224 84.973 57.92 87.277 57.92H93.325V61.904H87.181C85.645 61.904 84.461 62.288 83.629 63.056C82.829 63.792 82.429 64.752 82.429 65.936C82.429 67.12 82.829 68.08 83.629 68.816C84.461 69.552 85.645 69.92 87.181 69.92C88.109 69.92 88.957 69.76 89.725 69.44C90.525 69.088 91.181 68.512 91.693 67.712C92.237 66.88 92.541 65.76 92.605 64.352L94.237 66.224C94.077 68.048 93.629 69.584 92.893 70.832C92.189 72.08 91.197 73.04 89.917 73.712C88.669 74.352 87.133 74.672 85.309 74.672Z" fill="#121A26"/>
</g>
<defs>
<filter id="filter0_d_3709_223" x="0" y="0" width="140" height="140" filterUnits="userSpaceOnUse" color-interpolation-filters="sRGB">
<feFlood flood-opacity="0" result="BackgroundImageFix"/>
<feColorMatrix in="SourceAlpha" type="matrix" values="0 0 0 0 0 0 0 0 0 0 0 0 0 0 0 0 0 0 127 0" result="hardAlpha"/>
<feOffset dy="12"/>
<feGaussianBlur stdDeviation="12"/>
<feComposite in2="hardAlpha" operator="out"/>
<feColorMatrix type="matrix" values="0 0 0 0 0.95 0 0 0 0 0.95 0 0 0 0 0.95 0 0 0 1 0"/>
<feBlend mode="normal" in2="BackgroundImageFix" result="effect1_dropShadow_3709_223"/>
<feBlend mode="normal" in="SourceGraphic" in2="effect1_dropShadow_3709_223" result="shape"/>
</filter>
</defs>
</svg>
